<svg width="19" height="18" viewBox="0 0 19 18" fill="none" xmlns="http://www.w3.org/2000/svg">
    <path fill-rule="evenodd" clip-rule="evenodd" d="M7.45051 10.5589L7.5522 10.6606C9.3034 12.356 10.769 13.1522 11.9489 13.0493L12.2889 12.732C12.7725 12.292 13.1372 12.013 13.3829 11.8952C13.8944 11.6499 14.2533 11.6548 15.2228 12.1793C16.4981 12.8694 17.3787 13.6715 17.8287 14.1215C18.2465 14.5393 18.1167 15.2591 17.97 15.5784L17.8728 15.7565C17.6117 16.2101 16.6649 17.7065 14.8503 17.9625C14.1607 18.0598 13.2902 17.9706 12.2695 17.6632C10.083 16.9062 7.90572 15.5189 5.73751 13.5011L5.35191 13.1348L5.34828 13.1384L5.16219 12.9491L4.97264 12.7628L4.97628 12.7592L4.60996 12.3736C2.59223 10.2054 1.20488 8.02804 0.447932 5.84161C0.140515 4.82092 0.0513137 3.95039 0.148607 3.26078C0.422735 1.31778 2.11899 0.36971 2.43442 0.193081L2.46645 0.175004C2.73947 0.0175675 3.53965 -0.167593 3.98962 0.282378L4.20268 0.501482C4.66649 0.992002 5.3403 1.79513 5.93178 2.88829C6.45632 3.85774 6.46121 4.2167 6.21589 4.72822C6.07186 5.02853 5.68717 5.50653 5.06183 6.16221C4.95887 7.34213 5.7551 8.80769 7.45051 10.5589Z" fill="#0F0F0F"/>
</svg>
