<svg width="18" height="16" viewBox="0 0 18 16" fill="none" xmlns="http://www.w3.org/2000/svg">
    <path fill-rule="evenodd" clip-rule="evenodd" d="M10.2942 0C10.748 0 11.1852 0.175645 11.5186 0.491959L12.6814 1.595C12.9732 1.87177 13.3443 2.04085 13.7366 2.07879L13.9058 2.08696H14.441C16.1857 2.08696 17.6 3.54041 17.6 5.33333V12.7536C17.6 14.5465 16.1857 16 14.441 16H3.15897C1.41432 16 0 14.5465 0 12.7536V5.33333C0 3.54041 1.41432 2.08696 3.15897 2.08696H3.69422C4.14802 2.08696 4.58516 1.91131 4.91861 1.595L6.08139 0.491959C6.41484 0.175645 6.85198 0 7.30578 0H10.2942ZM8.80007 4C6.27281 4 4.22407 6.11647 4.22407 8.72727C4.22407 11.3381 6.27281 13.4545 8.80007 13.4545C11.3273 13.4545 13.3761 11.3381 13.3761 8.72727C13.3761 6.11647 11.3273 4 8.80007 4ZM8.80001 5.45455C10.5496 5.45455 11.968 6.9198 11.968 8.72727C11.968 10.5348 10.5496 12 8.80001 12C7.05037 12 5.63201 10.5348 5.63201 8.72727C5.63201 6.9198 7.05037 5.45455 8.80001 5.45455Z" fill="#0584FE"/>
</svg>
