<svg width="16" height="16" viewBox="0 0 16 16" fill="none" xmlns="http://www.w3.org/2000/svg">
    <path fill-rule="evenodd" clip-rule="evenodd" d="M8 0C12.4183 0 16 3.58172 16 8C16 12.4183 12.4183 16 8 16C3.58172 16 0 12.4183 0 8C0 3.58172 3.58172 0 8 0ZM11.1412 10.48C10.3453 11.4993 9.31729 11.9964 8.00002 11.9964C6.68276 11.9964 5.6547 11.4993 4.85883 10.48C4.63224 10.1898 4.21329 10.1382 3.92308 10.3648C3.63287 10.5914 3.5813 11.0103 3.80788 11.3005C4.85754 12.6449 6.27393 13.3297 8.00002 13.3297C9.72611 13.3297 11.1425 12.6449 12.1922 11.3005C12.4187 11.0103 12.3672 10.5914 12.077 10.3648C11.7868 10.1382 11.3678 10.1898 11.1412 10.48ZM5.33334 5.33334C4.78106 5.33334 4.33334 5.93029 4.33334 6.66667C4.33334 7.40305 4.78106 8 5.33334 8C5.88563 8 6.33334 7.40305 6.33334 6.66667C6.33334 5.93029 5.88563 5.33334 5.33334 5.33334ZM10.6667 5.33334C10.1144 5.33334 9.66666 5.93029 9.66666 6.66667C9.66666 7.40305 10.1144 8 10.6667 8C11.2189 8 11.6667 7.40305 11.6667 6.66667C11.6667 5.93029 11.2189 5.33334 10.6667 5.33334Z" fill="#0584FE"/>
</svg>
