<svg width="18" height="18" viewBox="0 0 18 18" fill="none" xmlns="http://www.w3.org/2000/svg">
    <path d="M9.00006 0.875C7.3931 0.875 5.82223 1.35152 4.48609 2.2443C3.14995 3.13708 2.10856 4.40602 1.4936 5.89066C0.878642 7.3753 0.717742 9.00895 1.03124 10.585C1.34475 12.1611 2.11857 13.6088 3.25486 14.7451C4.39116 15.8814 5.83888 16.6553 7.41497 16.9688C8.99105 17.2823 10.6247 17.1214 12.1093 16.5064C13.594 15.8914 14.8629 14.85 15.7557 13.5139C16.6485 12.1778 17.125 10.6069 17.125 8.99994C17.1226 6.84582 16.2658 4.78062 14.7426 3.25743C13.2194 1.73424 11.1542 0.877438 9.00006 0.875V0.875ZM8.84386 4.625C9.02927 4.625 9.21053 4.67998 9.3647 4.783C9.51887 4.88601 9.63903 5.03243 9.70999 5.20373C9.78094 5.37503 9.79951 5.56353 9.76333 5.74539C9.72716 5.92724 9.63787 6.09429 9.50676 6.2254C9.37565 6.35651 9.20861 6.4458 9.02675 6.48197C8.8449 6.51814 8.6564 6.49958 8.48509 6.42862C8.31379 6.35767 8.16737 6.23751 8.06436 6.08334C7.96135 5.92917 7.90636 5.74791 7.90636 5.56249C7.90636 5.31385 8.00513 5.0754 8.18095 4.89959C8.35676 4.72377 8.59522 4.625 8.84386 4.625V4.625ZM9.62506 13.3749H9.00007C8.83431 13.3749 8.67534 13.309 8.55814 13.1918C8.44093 13.0746 8.37508 12.9157 8.37507 12.7499V8.99994C8.20931 8.99994 8.05034 8.93409 7.93313 8.81688C7.81592 8.69967 7.75008 8.5407 7.75008 8.37494C7.75008 8.20918 7.81592 8.05021 7.93313 7.933C8.05034 7.81579 8.20931 7.74995 8.37507 7.74995H9.00007C9.16582 7.74995 9.32479 7.81581 9.442 7.93301C9.5592 8.05022 9.62505 8.20919 9.62506 8.37494V12.1249C9.79082 12.1249 9.94979 12.1908 10.067 12.308C10.1842 12.4252 10.2501 12.5841 10.2501 12.7499C10.2501 12.9157 10.1842 13.0746 10.067 13.1918C9.94979 13.3091 9.79082 13.3749 9.62506 13.3749Z" fill="#0F0F0F"/>
</svg>
