<svg width="18" height="18" viewBox="0 0 18 18" fill="none" xmlns="http://www.w3.org/2000/svg">
    <path fill-rule="evenodd" clip-rule="evenodd" d="M2.86747 8.36516C3.31796 8.36516 3.68315 8.73097 3.68315 9.18222V17.1829C3.68315 17.6342 3.31796 18 2.86747 18H1.40278C1.15433 18 0.923771 17.8783 0.782848 17.678L0.734344 17.5992C0.244781 16.6845 0 15.2123 0 13.1826C0 11.2004 0.233454 9.74986 0.700362 8.83109L0.780341 8.68288C0.89301 8.48635 1.10199 8.36516 1.32824 8.36516H2.86747ZM8.75247 0.00548348C10.6306 0.250718 11.5696 1.45265 11.5696 3.61128C11.5696 4.04757 11.4522 5.02395 11.2175 6.54039C15.0462 6.62038 16.8506 7.29967 16.8506 8.57827C16.8506 8.89335 16.7699 9.19505 16.3886 9.48338C16.983 9.84677 17.2802 10.3641 17.2802 11.0355C17.2802 11.7069 16.9385 12.2559 16.2551 12.6826C16.5838 13.054 16.7069 13.4874 16.6243 13.9827C16.5418 14.4781 16.1678 14.8503 15.5024 15.0993C15.8256 16.4986 14.2495 17.1982 10.7742 17.1982C5.65436 17.1982 5.17323 15.9148 5.15768 14.7607L5.15727 10.1089C5.1048 9.04732 5.41453 8.15567 6.08645 7.43395L6.22566 7.29187C7.41619 6.13629 8.05958 4.98096 8.15581 3.82587L8.01622 0.68267C8.00023 0.322041 8.2791 0.0166886 8.63912 0.000645796C8.67697 -0.00104084 8.7149 0.00057784 8.75247 0.00548348Z" fill="#0584FE"/>
</svg>
