<svg width="16" height="16" viewBox="0 0 16 16" fill="none" xmlns="http://www.w3.org/2000/svg">
    <path fill-rule="evenodd" clip-rule="evenodd" d="M3.2 9.6C4.96731 9.6 6.4 11.0327 6.4 12.8C6.4 14.5673 4.96731 16 3.2 16C1.43269 16 0 14.5673 0 12.8C0 11.0327 1.43269 9.6 3.2 9.6ZM12.8001 9.6C14.5674 9.6 16.0001 11.0327 16.0001 12.8C16.0001 14.5673 14.5674 16 12.8001 16C11.0327 16 9.60005 14.5673 9.60005 12.8C9.60005 11.0327 11.0327 9.6 12.8001 9.6ZM3.2 0C4.96731 0 6.4 1.43269 6.4 3.2C6.4 4.96731 4.96731 6.4 3.2 6.4C1.43269 6.4 0 4.96731 0 3.2C0 1.43269 1.43269 0 3.2 0ZM12.8001 0C14.5674 0 16.0001 1.43269 16.0001 3.2C16.0001 4.96731 14.5674 6.4 12.8001 6.4C11.0327 6.4 9.60005 4.96731 9.60005 3.2C9.60005 1.43269 11.0327 0 12.8001 0Z" fill="#0584FE"/>
</svg>
