<svg width="17" height="16" viewBox="0 0 17 16" fill="none" xmlns="http://www.w3.org/2000/svg">
    <path fill-rule="evenodd" clip-rule="evenodd" d="M13.6909 0C15.2975 0 16.6 1.30244 16.6 2.90909V13.0909C16.6 14.6976 15.2975 16 13.6909 16H3.50907C1.90242 16 0.599976 14.6976 0.599976 13.0909V2.90909C0.599976 1.30244 1.90242 0 3.50907 0H13.6909ZM13.691 1.45455H3.50915C2.70583 1.45455 2.05461 2.10577 2.05461 2.90909V10.5203C2.05461 10.6007 2.11973 10.6658 2.20006 10.6658C2.22277 10.6658 2.24516 10.6605 2.26545 10.6503L6.63904 8.44944C7.87272 7.82842 9.32756 7.82811 10.5615 8.44861L14.9347 10.6475C15.0065 10.6836 15.0939 10.6546 15.13 10.5829C15.1402 10.5626 15.1455 10.5402 15.1455 10.5175V2.90909C15.1455 2.10577 14.4943 1.45455 13.691 1.45455ZM5.32723 2.90909C6.33138 2.90909 7.14541 3.72312 7.14541 4.72727C7.14541 5.73143 6.33138 6.54545 5.32723 6.54545C4.32307 6.54545 3.50904 5.73143 3.50904 4.72727C3.50904 3.72312 4.32307 2.90909 5.32723 2.90909Z" fill="#0584FE"/>
</svg>
