<svg width="25" height="16" viewBox="0 0 25 16" fill="none" xmlns="http://www.w3.org/2000/svg">
    <path fill-rule="evenodd" clip-rule="evenodd" d="M14.3333 0C16.297 0 17.8889 1.53502 17.8889 3.42857V12.5714C17.8889 14.465 16.297 16 14.3333 16H3.66667C1.70299 16 0.111115 14.465 0.111115 12.5714V3.42857C0.111115 1.53502 1.70299 0 3.66667 0H14.3333ZM24.8807 3.96697C24.9589 4.10279 25 4.2556 25 4.41098V11.589C25 12.094 24.5755 12.5033 24.0519 12.5033C23.8907 12.5033 23.7322 12.4637 23.5914 12.3882L20.2763 10.6123C19.9 10.4107 19.6667 10.0283 19.6667 9.61325V6.38674C19.6667 5.9717 19.9 5.58927 20.2763 5.38771L23.5914 3.61175C24.0491 3.36653 24.6264 3.52556 24.8807 3.96697Z" fill="#0F0F0F"/>
</svg>
