<svg width="14" height="18" viewBox="0 0 14 18" fill="none" xmlns="http://www.w3.org/2000/svg">
    <path fill-rule="evenodd" clip-rule="evenodd" d="M4.22158 16.5H10.0169C10.4169 16.5 10.7413 16.8358 10.7413 17.25C10.7413 17.6346 10.4616 17.9516 10.1013 17.995L10.0169 18H4.22158C3.8215 18 3.49717 17.6642 3.49717 17.25C3.49717 16.8654 3.77682 16.5484 4.1371 16.505L4.22158 16.5H10.0169H4.22158ZM12.9877 7.95262C13.3876 7.96477 13.7023 8.31027 13.6906 8.7243C13.6601 9.79854 13.3283 10.9368 12.7653 11.9463C10.965 15.1748 6.9776 16.2809 3.85929 14.417C1.8646 13.2246 0.651668 11.0593 0.600167 8.71938C0.591053 8.30527 0.90791 7.96193 1.30789 7.95249C1.70786 7.94305 2.0395 8.2711 2.04861 8.68521C2.0887 10.5068 3.03164 12.1902 4.5837 13.1179C7.00905 14.5677 10.1103 13.7073 11.5106 11.1963C11.9575 10.395 12.2192 9.49713 12.2424 8.68029C12.2541 8.26625 12.5878 7.94046 12.9877 7.95262ZM7.11922 0C9.11962 0 10.7413 1.67893 10.7413 3.75V8.625C10.7413 10.6961 9.11962 12.375 7.11922 12.375C5.11882 12.375 3.49717 10.6961 3.49717 8.625V3.75C3.49717 1.67893 5.11882 0 7.11922 0Z" fill="#0584FE"/>
</svg>
